<?xml version="1.0" encoding="UTF-8"?>
<svg enable-background="new 0 0 1052.363 744.094" viewBox="0 0 1052.363 744.094" xmlns="http://www.w3.org/2000/svg">
 <path d="m532.9 544.17-136.84-39.287" fill="none" stroke="#2A2A72" stroke-width="4.238"/>
 <path d="m532.9 544.17-136.84-39.287 2.449-11.628 130.92 38.14" fill="none"/>
none d="m398.51 493.26 130.92 38.14" fill="none" stroke="#2A2A72" stroke-width="4.238"/>
 <path d="m532.9 544.17-136.84-39.287" fill="none" stroke="#2A2A72" stroke-width="4.238"/>
 <path d="m683.06 484.28-136.84-39.287" fill="none" stroke="#2A2A72" stroke-width="4.238"/>
 <path d="m683.06 484.28-136.84-39.287 2.449-11.628 130.92 38.139" fill="none"/>
none d="m548.67 433.36 130.92 38.139" fill="none" stroke="#2A2A72" stroke-width="4.238"/>
 <path d="m683.06 484.28-136.84-39.287" fill="none" stroke="#2A2A72" stroke-width="4.238"/>
 <path d="m410.04 580.41c18.427-15.925 424.16-179.72 440.16-179.16s29.098 6.672 29.098 6.672-378.39 242.18-456.2 227.62c0 0-12.119-3.54-30.165-23.682-6.766-7.551 7.501-23.155 17.102-31.451z" fill="none" stroke="#2A2A72" stroke-width="4.238"/>
 <path d="m401.58 586.9s-4.674 32.504 25.811 30.771c76.234-4.333 414.1-204.94 430.7-207.67s10.157-0.433 10.157-0.433-324.51 200.37-436.23 223.02c-6.995 1.419-16.19-6.766-26.907-13.87s-12.987-6.39-11.809-13.746 8.283-18.073 8.283-18.073z" fill-opacity=".1514"/>
 <path d="m401.58 586.9 9.416-4.958s419.49-177.02 418.99-173.86-412.14 178.2-416.68 179.62-11.725-0.802-11.725-0.802z" fill-opacity=".0919"/>
 <path d="m431.95,577.584c0,0-.32-4.123-1.917-4.681-1.483-.517-7.27,1.181-8.749.663-1.204-.418-2.115-2.354-1.441-3.51 .829-1.418 5.282-4.228 7.447-5.419 4.024-2.215 12.998-5.97 17.404-7.131 2.601-.684 8.067-1.58 9.728-1.057 1.253.39 2.095,2.373 1.454,3.532-.791,1.425-6.473,4.132-7.261,5.556-.813,1.466 1.83,4.47 1.83,4.47" fill="none" stroke="#2A2A72" stroke-width="4.238"/>
 <path d="m213.01 492.54c19.277-14.883 433.43-156.02 449.38-154.59 15.943 1.436 28.686 8.268 28.686 8.268s-391.18 220.92-468.07 202.09c0 0-11.905-4.204-28.812-25.311-6.337-7.914 8.769-22.706 18.814-30.459z" fill="none" stroke="#2A2A72" stroke-width="4.238"/>
 <path d="m204.21 498.54s-6.462 32.196 24.073 32.149c76.357-0.117 424.78-181.77 441.51-183.58s10.164 0.129 10.164 0.129-335.08 182.15-447.88 198.6c-7.063 1.03-15.792-7.648-26.1-15.334s-12.614-7.098-11.032-14.377 9.268-17.589 9.268-17.589z" fill-opacity=".1514"/>
 <path d="m206.98 495.83 9.675-4.431s428.62-153.59 427.95-150.47-421.34 155.17-425.96 156.35c-4.61 1.174-11.663-1.448-11.663-1.448z" fill-opacity=".0919"/>
 <path d="m233.496,487.358c0,0-.092-4.134-1.657-4.778-1.452-.599-7.323.777-8.771.178-1.179-.483-1.982-2.468-1.245-3.583 .906-1.37 5.507-3.93 7.735-5 4.14-1.988 13.307-5.243 17.771-6.159 2.635-.539 8.142-1.132 9.771-.518 1.229.458 1.96,2.485 1.256,3.606-.869,1.38-6.691,3.769-7.556,5.147-.893,1.418 1.581,4.563 1.581,4.563" fill="none" stroke="#2A2A72" stroke-width="4.238"/>
 <path d="m220.23 279.24 85.389 119.15 15.886-7.943-93.333-123.12-7.942 11.915z" fill="#a0b2ff" stroke="#2A2A72" stroke-width="3.7671"/>
 <path d="m663.06 314.98-39.715-15.886s15.887-7.943 33.758-7.943 33.758 1.986 33.758 1.986l29.787 7.943-57.588 13.9z" fill="none" stroke="#2A2A72" stroke-width="3.7671"/>
 <path d="m539.9 534.1-37.692-58.268-71.487 23.83s-23.83 7.941-55.603 11.914-33.758 1.986-33.758 1.986l-10.25-0.034-7.622 0.034s-45.673-13.9-59.574-25.816c-13.9-11.914-19.858-15.887-25.815-35.744s-1.986-33.758-1.986-33.758 25.815-13.9 49.645-23.83 45.673-17.871 45.673-17.871l25.814-47.659s-111.2-35.744-176.73-59.573-150.92-59.574-150.92-59.574-5.958-1.985 1.986-7.943 95.317-7.943 95.317-7.943l369.36 119.15s25.815 3.972 41.702 9.929 29.787 11.915 29.787 11.915 41.701-3.972 67.516-11.915 95.318-31.773 107.23-39.716 73.475-113.19 73.475-113.19l45.672-3.972-37.729 133.05v21.844s-9.93-1.986 0 0 123.12 37.729 123.12 37.729l-47.658 11.915-148.93-27.801 39.715 7.943-55.602 21.844s291.91 59.573 289.92 63.544c-1.984 3.973-13.9 11.916-39.715 19.859s-57.588 9.928-57.588 9.928l-266.09-59.572-139 63.545 29.615 57.926" fill="none" stroke="#2A2A72" stroke-width="4.238"/>
 <path d="m462.1 306.44c1.223-3.667 53.785 8.557 68.455 13.446s36.672 17.114 36.672 17.114v3.667l-105.13-34.227z" fill-opacity=".3622"/>
 <path d="m339.37 374.55s33.759 7.943 47.659 13.9 31.772 15.887 31.772 15.887l31.772 1.986 7.943-45.674s-7.943 3.972-11.915-3.971 9.929-15.886 9.929-15.886l-85.389-25.815-31.771 59.573z" fill="#000035" fill-opacity=".6054" stroke="#2A2A72" stroke-width="2.3544"/>
 <path d="m458.52 360.65 202.55 45.674" fill="none" stroke="#2A2A72" stroke-width="2.3544"/>
 <path d="m464.48 402.35 5.957-37.729 57.587 11.915v15.886l-63.544 9.928z" fill="#5d6085" stroke="#2A2A72" stroke-width="2.3544"/>
 <path d="m537.95 380.51 3.971 9.93 17.873-5.957-21.844-3.973z" fill="#5d6085" stroke="#2A2A72" stroke-width="2.3544"/>
 <path d="m240.08 424.2s5.958-1.986 25.815 5.957 27.801 15.887 27.801 15.887 9.929 7.943 0 7.943-9.929 3.971-27.801-3.971-25.815-9.93-25.815-17.873 0-7.943 0-7.943z" fill-opacity=".5243" stroke="#2A2A72" stroke-width="2.3544"/>
 <path d="m311.75 505.69s12.643 2.297 15.088-5.037c2.444-7.336 21.584-9.631 21.584-9.631s19.558 2.443 85.567-12.225 222.77-83.864 218.45-71.764l-131.84 62.405c-21.609 4.322-82.581 24.299-123.28 38.697-35.511 2.297-50.773 3.729-67.887 3.877-17.114-2.445-17.681-6.322-17.681-6.322z" fill-opacity=".1514"/>
 <path d="m441.32 493.47 187.38-92.753 15.533 2.296-176.02 83.123-26.892 7.334z" fill="#f4fbfe" stroke="#2A2A72" stroke-width="2.8253"/>
 <path d="m632.02 322.69 176.02-14.668s-14.668-19.559-41.561-19.559-33.02-2.087-59.912 12.582-74.55 21.645-74.55 21.645z" fill-opacity=".0378"/>
 <path d="m748.48 286.54 71.063-112.62 35.092-3.309c-4.322 7.779-15.262 7.656-31.932 22.151-24.448 31.783-74.223 93.782-74.223 93.782z" fill-opacity=".1027"/>
 <path d="m421.76 410.34-112.46 44.007s9.779 7.334 9.779 24.447 9.779 19.559 9.779 19.559-7.335-26.893-2.445-34.227c4.89-7.336 95.347-53.786 95.347-53.786z" fill-opacity=".1027"/>
 <path d="m757.02 338.29 60.506-15.559 65.691 19.88s-42.354-12.965-63.098-12.101-63.099 7.78-63.099 7.78z" fill-opacity=".1784"/>
 <path d="m922.12 413.13s-320.68-59.641-400.2-87.3-364.61-120.24-364.61-120.24 262.86 93.648 377.53 130.22c109.78 34.13 387.28 77.322 387.28 77.322z" fill="#b8b8b8"/>
 <path d="m927.83 460.46s0-6.111 9.779-12.225 14.668-11 36.672-12.223 34.227 0 34.227 0-15.891 0-39.117 4.889-30.559 8.557-34.227 13.447-7.334 6.112-7.334 6.112z" fill-opacity=".2595"/>
 <path d="m450.52 361.29-87.261-31.925s-3.192 0 0-6.385 7.449-8.513 7.449-8.513l85.132 26.604s-4.257 0-7.449 5.321-4.256 6.385-2.128 10.642 4.257 4.256 4.257 4.256z" fill-opacity=".5297"/>
 <path d="m542.04 530.49" fill-opacity=".1514"/>
 <path d="m781.47 351.71-53.207 21.283-17.025-3.192s51.078-18.091 59.592-19.155 10.64 1.064 10.64 1.064z" fill-opacity=".173"/>
 <path d="m320.58 512.8h21.069" fill="none" stroke="#2A2A72" stroke-width="2.3544"/>
 <path d="m555.35 518.82" fill="none" stroke="#2A2A72" stroke-opacity=".4216" stroke-width="2.3544"/>
 <path d="m537.29 530.86" fill="none" stroke="#2A2A72" stroke-opacity=".4216" stroke-width="2.3544"/>
 <path d="m260.93 440.72c0.927 1.822-1.181 1.938-2.02 1.281-2.273-1.781-2.245-5.6-1.06-7.338 2.121-3.111 6.539-1.428 9.141 2.215 3.818 5.348 3.412 12.668 0.099 15.957-4.416 4.385-11.928 1.195-16.261-5.713-5.452-8.693-4.625-19.84 0.862-24.574 6.646-5.734 17.348-0.984 23.381 9.207 7.109 12.012 5.853 27.041-1.823 33.195-8.861 7.105-22.778 0.779-30.501-12.705-8.775-15.322-7.085-34.248 2.784-41.813 11.071-8.486 28.213-0.577 37.622 16.201 10.445 18.627 8.32 41.461-3.745 50.43-13.278 9.873-33.65 0.377-44.742-19.697-12.117-21.93-9.556-48.677 4.706-59.049 15.482-11.26 39.088-0.178 51.861 23.193 13.792 25.234 10.794 55.896-5.666 67.668-17.687 12.65-44.528-0.02-58.981-26.689-15.466-28.535-12.032-63.115 6.626-76.287 19.89-14.04 49.968 0.22 66.103 30.188 17.141 31.836 13.271 70.334-7.588 84.904-22.093 15.434-55.409-0.416-73.222-33.682-18.816-35.139-14.509-77.557 8.548-93.524 24.295-16.825 60.849 0.614 80.342 37.179 20.493 38.439 15.749 84.777-9.509 102.14-26.497 18.217-66.291-0.813-87.462-40.676-22.169-41.74-16.987-91.998 10.47-110.76 28.7-19.611 71.732 1.009 94.583 44.171 23.846 45.04 18.228 99.22-11.431 119.38-30.901 21.004-77.173-1.207-101.7-47.668-25.522-48.342-19.466-106.44 12.392-128 33.103-22.398 82.615 1.404 108.82 51.165 27.199 51.641 20.706 113.66-13.352 136.62-35.305 23.791-88.057-1.602-115.94-54.662-28.875-54.939-21.945-120.89 14.313-145.23 37.506-25.186 93.499 1.798 123.06 58.156 30.553 58.242 23.186 128.11-15.273 153.85" fill="none" stroke="#2A2A72"/>
 <path d="m261.21 424.53s11.083 8.135 11.083 19.662-11.083 14.236-11.083 14.236-16.887-4.068-22.165-6.779c-3.694-4.068-6.333-10.848 0-16.271s22.165-10.848 22.165-10.848z" fill="none" stroke="#2A2A72" stroke-width="3.6729"/>
 <path d="m608.87 396.65 11.539 1.923s-113.46 48.075-130.77 51.921-92.305 23.076-92.305 23.076-5.769 3.848-3.846-3.846 49.998-13.461 101.92-26.922c21.153-5.77 101.92-40.383 101.92-40.383l11.538-5.769z" fill="#00004c" fill-opacity=".6162"/>
 <path d="m681.95 363.96 9.615 1.923 42.307-15.384-1.922-3.846-50 17.307z" fill="#00004c" fill-opacity=".6162"/>
 <path d="m758.87 377.42-180.76-36.537" fill="none" stroke="#2A2A72" stroke-width="3.0608"/>
 <path d="m614.64 331.27 203.84-13.461-19.23-9.615s-19.23-9.615-82.689 1.923-101.92 21.153-101.92 21.153z" fill-opacity=".0865"/>
 <path d="m672.55 477.35-59.387-51.722 19.369-8.792 51.652 57.698" fill="none"/>
none d="m634.58 418.44 49.606 56.093" fill="none" stroke="#2A2A72" stroke-width="4.238"/>
 <path d="m674.44 478.61-58.656-51.436" fill="none" stroke="#2A2A72" stroke-width="4.238"/>
 <path d="m650.43 449.8-117.5 55" fill="none" stroke="#2A2A72" stroke-width="4.238"/>
 <path d="m650.43 449.8-117.5 55-5.373-9.265 112.75-52.25" fill="none"/>
none d="m527.56 495.53 112.75-52.25" fill="none" stroke="#2A2A72" stroke-width="4.238"/>
 <path d="m650.43 449.8-117.5 55" fill="none" stroke="#2A2A72" stroke-width="4.238"/>
</svg>
